<svg style="position: absolute; width: 0; height: 0; overflow: hidden;" version="1.1" xmlns="http://www.w3.org/2000/svg" xmlns:xlink="http://www.w3.org/1999/xlink">
<defs>

<symbol id="icon-checkmark" viewBox="0 0 32 32">
    <path d="M27 4l-15 15-7-7-5 5 12 12 20-20z"></path>
</symbol>

<symbol id="icon-spinner" viewBox="0 0 32 32">
<path d="M32 12h-12l4.485-4.485c-2.267-2.266-5.28-3.515-8.485-3.515s-6.219 1.248-8.485 3.515c-2.266 2.267-3.515 5.28-3.515 8.485s1.248 6.219 3.515 8.485c2.267 2.266 5.28 3.515 8.485 3.515s6.219-1.248 8.485-3.515c0.189-0.189 0.371-0.384 0.546-0.583l3.010 2.634c-2.933 3.349-7.239 5.464-12.041 5.464-8.837 0-16-7.163-16-16s7.163-16 16-16c4.418 0 8.418 1.791 11.313 4.687l4.687-4.687v12z"></path>
</symbol>

<symbol id="icon-cross" viewBox="0 0 32 32">
<path d="M31.708 25.708c-0-0-0-0-0-0l-9.708-9.708 9.708-9.708c0-0 0-0 0-0 0.105-0.105 0.18-0.227 0.229-0.357 0.133-0.356 0.057-0.771-0.229-1.057l-4.586-4.586c-0.286-0.286-0.702-0.361-1.057-0.229-0.13 0.048-0.252 0.124-0.357 0.228 0 0-0 0-0 0l-9.708 9.708-9.708-9.708c-0-0-0-0-0-0-0.105-0.104-0.227-0.18-0.357-0.228-0.356-0.133-0.771-0.057-1.057 0.229l-4.586 4.586c-0.286 0.286-0.361 0.702-0.229 1.057 0.049 0.13 0.124 0.252 0.229 0.357 0 0 0 0 0 0l9.708 9.708-9.708 9.708c-0 0-0 0-0 0-0.104 0.105-0.18 0.227-0.229 0.357-0.133 0.355-0.057 0.771 0.229 1.057l4.586 4.586c0.286 0.286 0.702 0.361 1.057 0.229 0.13-0.049 0.252-0.124 0.357-0.229 0-0 0-0 0-0l9.708-9.708 9.708 9.708c0 0 0 0 0 0 0.105 0.105 0.227 0.18 0.357 0.229 0.356 0.133 0.771 0.057 1.057-0.229l4.586-4.586c0.286-0.286 0.362-0.702 0.229-1.057-0.049-0.13-0.124-0.252-0.229-0.357z"></path>
</symbol>

<svg id="icon-upright" width="22" height="17" viewBox="0 0 22 17" fill="none">
<path d="M21.3245 6.32454C21.2491 6.39999 21.1595 6.45984 21.0609 6.50068C20.9624 6.54151 20.8567 6.56253 20.75 6.56253C20.6433 6.56253 20.5376 6.54151 20.4391 6.50068C20.3405 6.45984 20.2509 6.39999 20.1755 6.32454L16.6875 2.83658V15.5C16.6875 15.7155 16.6019 15.9222 16.4495 16.0745C16.2972 16.2269 16.0905 16.3125 15.875 16.3125H1.25C1.03451 16.3125 0.827849 16.2269 0.675476 16.0745C0.523102 15.9222 0.4375 15.7155 0.4375 15.5C0.4375 15.2845 0.523102 15.0778 0.675476 14.9255C0.827849 14.7731 1.03451 14.6875 1.25 14.6875H15.0625V2.83658L11.5745 6.32454C11.4991 6.39999 11.4095 6.45984 11.3109 6.50067C11.2124 6.5415 11.1067 6.56252 11 6.56252C10.8933 6.56252 10.7876 6.5415 10.6891 6.50067C10.5905 6.45984 10.5009 6.39999 10.4255 6.32454C10.35 6.24909 10.2902 6.15952 10.2493 6.06094C10.2085 5.96236 10.1875 5.8567 10.1875 5.75C10.1875 5.53451 10.2731 5.32784 10.4255 5.17546L15.3005 0.300461C15.3021 0.298836 15.3039 0.297516 15.3055 0.295891C15.323 0.278727 15.3411 0.262273 15.36 0.246734C15.3695 0.238914 15.3796 0.232109 15.3894 0.224695C15.4008 0.216164 15.412 0.207328 15.4239 0.199305C15.4353 0.191688 15.4472 0.185086 15.4591 0.177977C15.4701 0.171375 15.4808 0.16457 15.4921 0.158477C15.504 0.152078 15.5162 0.146797 15.5283 0.141008C15.5402 0.135422 15.552 0.12943 15.5642 0.124352C15.5758 0.119578 15.5876 0.115719 15.5993 0.111555C15.6126 0.10668 15.6258 0.101602 15.6394 0.0974377C15.651 0.0939846 15.6627 0.0914454 15.6744 0.0885001C15.6883 0.0849454 15.7022 0.0809843 15.7165 0.0782421C15.7297 0.0756014 15.7431 0.0740782 15.7565 0.0721486C15.7693 0.0702189 15.7821 0.0677813 15.7951 0.0665626C15.8186 0.0642267 15.8423 0.0632111 15.8661 0.0629064C15.8691 0.0629064 15.872 0.0625 15.875 0.0625C15.878 0.0625 15.881 0.0629064 15.8839 0.0629064C15.9077 0.0632111 15.9314 0.0642267 15.9549 0.0665626C15.9679 0.0677813 15.9807 0.0702189 15.9935 0.0721486C16.0069 0.0740782 16.0203 0.0756014 16.0335 0.0782421C16.0478 0.0810858 16.0617 0.0849454 16.0756 0.0883985C16.0873 0.0914454 16.099 0.0939845 16.1106 0.0975392C16.1242 0.101602 16.1374 0.10668 16.1507 0.111555C16.1624 0.115719 16.1741 0.119578 16.1858 0.124352C16.198 0.12943 16.2097 0.135422 16.2217 0.141008C16.2339 0.146797 16.2461 0.15218 16.2579 0.158477C16.2692 0.16457 16.2799 0.171375 16.2909 0.177977C16.3027 0.185086 16.3147 0.191688 16.3261 0.199305C16.338 0.207328 16.3492 0.216164 16.3607 0.224695C16.3704 0.232109 16.3805 0.238914 16.3901 0.246734C16.409 0.262273 16.427 0.278727 16.4445 0.295891C16.4461 0.297516 16.4479 0.298937 16.4495 0.300461L21.3245 5.17546C21.4 5.25091 21.4598 5.34048 21.5007 5.43906C21.5415 5.53764 21.5625 5.6433 21.5625 5.75C21.5625 5.8567 21.5415 5.96236 21.5007 6.06094C21.4598 6.15952 21.4 6.24909 21.3245 6.32454Z" fill="white"/>
</svg>

<svg id="icon-select-image" width="49" height="43" viewBox="0 0 49 43" fill="none" xmlns="http://www.w3.org/2000/svg">
<g filter="url(#filter0_d)">
<path d="M32.1562 3.46875V0.59375H3.82812V39.4062H45.1719V13.5312H42.1094V15.8384L35.9108 10.0193L29.2852 16.2393L19.7148 7.25495L6.89062 19.294V3.46875H32.1562ZM35.9108 14.0852L42.1094 19.9043V28.2784L31.4507 18.2722L35.9108 14.0852ZM19.7148 11.3211L42.1094 32.3445V36.5312H6.89062V23.3602L19.7148 11.3211Z" fill="white"/>
</g>
</svg>

<filter id="filter0_d" x="-0.171875" y="0.59375" width="49.3438" height="46.8125" filterUnits="userSpaceOnUse" color-interpolation-filters="sRGB">
<feFlood flood-opacity="0" result="BackgroundImageFix"/>
<feColorMatrix in="SourceAlpha" type="matrix" values="0 0 0 0 0 0 0 0 0 0 0 0 0 0 0 0 0 0 127 0"/>
<feOffset dy="4"/>
<feGaussianBlur stdDeviation="2"/>
<feColorMatrix type="matrix" values="0 0 0 0 0 0 0 0 0 0 0 0 0 0 0 0 0 0 0.25 0"/>
<feBlend mode="normal" in2="BackgroundImageFix" result="effect1_dropShadow"/>
<feBlend mode="normal" in="SourceGraphic" in2="effect1_dropShadow" result="shape"/>
</filter>

</defs>
</svg>
